<?xml version="1.0" encoding="UTF-8"?>
<svg id="Layer_1" xmlns="http://www.w3.org/2000/svg" viewBox="0 0 341.43 140.29">
  <path d="M60.42,140.29c-1.82,0-3.67-.1-5.51-.3-5.76-.62-11.22-2.2-16.21-4.71-7.06-3.54-12.73-8.46-16.85-14.63-2.09-3.12-3.63-6.24-4.67-9.44-.96-.16-1.9-.4-2.82-.71-6.71-2.25-11.34-6.96-13.41-13.62-1.71-5.5-1.12-11.04,1.7-16.08v-7.63c0-7.01,0-14.02,0-21.03,0-4.05.74-8.08,2.18-11.96,2.35-6.35,6.32-11.82,11.79-16.28,2.64-2.15,5.56-3.97,8.69-5.43,3.6-5.43,8.44-9.82,14.4-13.06C46.34,1.82,53.54,0,61.15,0c1.11,0,2.24.04,3.37.12,8.21.56,15.72,3.17,22.32,7.75,4.84,3.36,8.73,7.56,11.58,12.49,4.8,2.68,8.87,6.16,12.12,10.34,4.19,5.4,6.7,11.55,7.44,18.28.21,1.89.2,3.68.19,5.41,0,.49,0,.99,0,1.48.02,2.44.01,4.88,0,7.32v6.02c0,3.76,0,7.53,0,11.29,4.36,7.86,3.1,17.79-3.15,24.36-3.19,3.35-7.06,5.41-11.53,6.13-2.47,7.68-7.15,14.24-13.92,19.53-5.21,4.06-11.24,6.92-17.94,8.48-3.67.86-7.44,1.29-11.22,1.29ZM214.14,132.36c-2.09,0-3.91-1.42-4.42-3.45-.16-.63-.27-3.24-.34-6.94h-9.56c-1.54,0-2.98-.78-3.82-2.07-1.01-1.55-1.96-3.08-2.95-4.69-1.03,1.63-2.1,3.3-3.29,4.92-.86,1.17-2.22,1.86-3.67,1.86h-10.22c-1.66,0-3.19-.91-3.99-2.36-.55.33-1.12.63-1.71.9-3.49,1.62-7.07,2.45-10.63,2.45s-7.28-.87-10.79-2.57c-5.71-2.78-9.56-7.57-11.14-13.87-1.51-6.04-.93-11.8,1.73-17.13,1.56-3.13,3.73-5.72,6.34-7.68,0,0-2.43-.01-2.96-.01-2.43,0-4.43-1.9-4.55-4.32-.18-3.62-.16-7.14-.13-10.54.01-1.61.02-3.21.01-4.81-.03-5.17-.02-10.56,0-14.89,0-1.59,0-3.17,0-4.76-.01-3.37-.02-6.86.06-10.36.06-2.47,2.08-4.44,4.55-4.44h9.44c1.19,0,2.27.46,3.08,1.2,2.39-1.23,5.13-1.88,8.05-1.88,4.98,0,9.87,1.9,13.4,5.22.77.73,1.48,1.49,2.12,2.3.04-1.56.08-2.58.13-2.84.25-1.54,1.28-2.85,2.72-3.46,1.49-.63,2.88-.71,3.78-.71.43,0,.86.02,1.29.04.27.01.55.03.82.03h.17c.63-.03,1.26-.04,1.89-.04.46,0,2.28.02,2.74.02,1.25,0,2.42.51,3.26,1.38,1.99-1.25,4.27-1.9,6.68-1.9.5,0,1.02.03,1.53.09v-7.35c0-2.51,2.04-4.55,4.55-4.55h9.86c1.2,0,2.36.48,3.21,1.32q1.4,1.4,1.4,11.09c0,.41-.05.81-.16,1.18.46-.35,1-.61,1.59-.77,1.69-.44,4.46-.5,5.96-.5,1.25,0,3.6.05,5.33.36.77.14,1.46.47,2.04.93,1.4-.76,2.87-1.27,4.43-1.55,1.17-.21,2.33-.31,3.45-.31,3.08,0,5.95.78,8.54,2.31.91.54,1.74,1.16,2.48,1.85.45-1.91,2.1-3.35,4.1-3.49,0-.17,0-.34,0-.51,0-1.45,0-2.81.03-3.9.05-2.48,2.08-4.45,4.55-4.45h9.45c2.51,0,4.55,2.04,4.55,4.55v4.14h3.45c2.51,0,4.55,2.04,4.55,4.55v8.22c0,2.51-2.04,4.55-4.55,4.55h-3.44c0,2.97,0,6.77.03,9.34.31-.08.65-.16,1-.25.4-.1.81-.21,1.23-.31.35-.08.71-.13,1.07-.13,1.01,0,2.01.34,2.82.98,1.1.86,1.74,2.18,1.74,3.58v7.39c0,1.78-1.03,3.39-2.65,4.14-.21.1-.42.2-.64.3-.62.3-1.32.64-2.12.94-2.03.76-4.19,1.14-6.43,1.14-1.44,0-2.95-.16-4.48-.48-3.33-.69-7.36-2.61-9.24-7.7,0,.58,0,1.15,0,1.73,0,.8-.15,1.42-.25,1.84-.02.07-.04.15-.06.24-.42,2.13-2.29,3.67-4.47,3.67h-9.42c-2.44,0-4.44-1.92-4.55-4.35l-.03-.54c-.03-.54-.06-1.11-.06-1.67,0-1.82,0-3.64,0-5.46,0-3.92,0-7.84-.03-11.76,0-.79-.11-1.54-.29-2.16-.08-.26-.14-.47-.72-.5-.11,0-.22,0-.33,0-1.12,0-1.54,0-1.87,1.92-.02.12,0,.5,0,.77,0,.21,0,.42,0,.63,0,4.19,0,18.58,0,18.58,0,2.51-2.04,4.55-4.55,4.55h-9.47c-1.48,0-2.79-.71-3.63-1.8-.83,1.09-2.15,1.8-3.63,1.8h-9.71c-2.51,0-4.55-2.04-4.55-4.55v-20.72c-.24.05-.51.1-.81.12-3.8.35-5.38,2.05-5.64,6.05-.17,2.69-.15,5.4-.12,8.27.01,1.3.02,2.6.02,3.91v2.38c0,2.51-2.04,4.55-4.55,4.55h-9.22c-2.06,0-3.86-1.38-4.4-3.36-.13-.48-.23-1.7-.31-3.42-3.67,4.71-9.22,7.43-15.44,7.43-1.46,0-2.94-.16-4.39-.47-.77-.16-1.52-.38-2.26-.66,0,.17,0,4.64,0,4.64,0,.43-.03.87-.06,1.33l-.03.49c0,.15-.02.3-.05.45.66-.06,1.33-.09,2-.09,1.23,0,2.48.1,3.73.29,3.64.56,6.79,1.87,9.41,3.89.09-.36.22-.71.4-1.04.79-1.49,2.34-2.43,4.03-2.43.45,0,1.24,0,2.2-.02,1.51-.02,3.42-.04,5.08-.04s2.82.02,3.54.07c1.44.09,2.76.87,3.54,2.09.87,1.36,1.82,2.77,2.78,4.22.91-1.43,1.85-2.9,2.87-4.35.85-1.21,2.24-1.92,3.72-1.92h10.28c.68,0,1.34.15,1.93.43.58-.27,1.22-.41,1.9-.41h9.72c1.1,0,2.11.39,2.9,1.04,2.38-1.19,5.06-1.81,7.92-1.81,4.64,0,9.27,1.67,12.71,4.59,1.8,1.52,3.28,3.24,4.43,5.12,1.08-1.61,2.39-3.11,3.94-4.5,3.75-3.37,8.8-5.22,14.23-5.22s10.99,2.05,14.62,5.64c.46.45.89.92,1.3,1.4v-1.51c0-2.08,1.42-3.9,3.43-4.41,1.7-.43,4.63-.5,6.23-.5,1.21,0,3.51.04,5.33.3.84.12,1.6.47,2.21.97.49-.28,1-.53,1.55-.75,1.14-.46,2.91-1.08,5.07-1.08.85,0,1.72.1,2.57.29.51.11.99.31,1.41.58.23-.06.48-.11.73-.13v-4.35c0-2.51,2.04-4.55,4.55-4.55h9.8c2.51,0,4.55,2.04,4.55,4.55v4.11h3.34c.12,0,.24-.01.37-.01,2.51,0,4.55,2.04,4.55,4.55v8.79c0,2.51-2.04,4.55-4.55,4.55h-3.71c-.01,2.86-.02,5.8.01,8.66.35-.09.71-.19,1.09-.3.5-.14,1.01-.28,1.51-.41.36-.09.73-.13,1.1-.13,1.01,0,2,.33,2.8.97,1.1.86,1.75,2.19,1.75,3.59v7.86c0,1.68-.92,3.22-2.4,4.01-3.03,1.63-6.45,2.46-10.16,2.46h0c-.67,0-1.37-.03-2.07-.08-7.1-.54-11.73-5.06-12.39-12.1-.13-1.36-.13-2.65-.14-3.9-.01-3.27-.01-6.54,0-9.82v-1.11c-.7.65-1.61,1.08-2.62,1.19l-.81.08c-.53.05-1,.1-1.46.16-2.23.26-3.83,1.67-4.27,3.77-.26,1.26-.42,2.58-.45,3.92-.06,2.41-.05,4.89-.04,7.29,0,1.03,0,2.05,0,3.08v2.28c0,2.51-2.04,4.55-4.55,4.55h-9.79c-2.45,0-4.46-1.94-4.55-4.37-1.48,1.34-3.18,2.41-5.06,3.2-3.49,1.45-6.96,2.19-10.3,2.19-5.15,0-9.99-1.71-14.41-5.09-1.74-1.33-3.21-2.9-4.4-4.67-3.54,5.81-10.15,9.58-17.1,9.58-2.16,0-4.29-.37-6.27-1.09,0,.43-.02.85-.02,1.28-.01,1.08-.01,2.15,0,3.27v1.55c0,2.51-2.04,4.55-4.55,4.55h-9.49ZM176.67,108.26l.32-.47c-.2.08-.41.15-.63.2l.31.27ZM204.02,99.68c1.42,2.05,2.87,4.14,4.33,6.22.3.43.6.86.9,1.3,0-5.3,0-10.71.04-15.13l-5.27,7.62ZM232.01,95.02c-1.64.01-2.65.71-3.36,2.34-.86,1.96-.83,3.78.08,5.75.92,1.97,2.75,2.13,3.29,2.13.58,0,1.68-.14,2.58-1.09.74-.78,1.27-1.83,1.42-4.25-.02-.11-.05-.23-.07-.35-.14-.71-.32-1.6-.59-2.22-.91-2.03-2.19-2.3-3.32-2.3v-4.55l-.03,4.55ZM179.72,95.94c.28,1.67.43,3.45.45,5.35,0,.85-.11,1.6-.21,2.21l2.49-3.62c-.9-1.3-1.81-2.62-2.72-3.93ZM160.66,44.19c-1.55.07-2.44.63-3.18,2-1.05,1.97-1.12,3.99-.19,6.16.71,1.67,2.27,2.26,3.5,2.26.71,0,1.75-.19,2.64-1.11,1.36-1.41,1.41-2.64,1.32-3.45-.03-.25-.03-.51-.01-.76.11-1.67-.24-2.46-.56-2.95-1.27-1.98-2.32-2.15-3.29-2.15h-.23Z" style="fill: #fff;"/>
  <g>
    <g>
      <path d="M113.63,66.26c0,4.95,0,9.91,0,14.86,0,.42.1.78.32,1.15,3.68,6.18,2.77,14.21-2.22,19.45-3.06,3.22-6.85,4.84-11.27,5-.39.01-.53.14-.62.5-2.02,8.12-6.52,14.6-13.07,19.71-4.81,3.75-10.24,6.25-16.17,7.64-5.01,1.17-10.08,1.45-15.2.9-5.14-.55-10.04-1.93-14.66-4.25-6.14-3.08-11.27-7.35-15.1-13.09-2.21-3.3-3.9-6.86-4.8-10.75-.09-.4-.32-.44-.61-.45-1.51-.02-2.99-.26-4.42-.74-5.3-1.78-8.86-5.33-10.51-10.65-1.43-4.63-.82-9.08,1.74-13.22.17-.27.16-.55.16-.84,0-9.77-.01-19.55,0-29.32,0-3.57.66-7.04,1.9-10.39,2.13-5.74,5.66-10.47,10.4-14.33,2.61-2.13,5.46-3.85,8.54-5.2.24-.11.42-.24.57-.47,3.32-5.3,7.81-9.37,13.28-12.35,6.96-3.78,14.42-5.29,22.3-4.76,7.3.5,14.01,2.77,20.03,6.95,4.47,3.1,8.07,7.02,10.68,11.81.13.24.29.38.52.51,4.5,2.39,8.38,5.54,11.5,9.57,3.66,4.72,5.85,10.04,6.52,15.99.24,2.14.15,4.28.17,6.42.02,3.45,0,6.91,0,10.36ZM93.16,52.57c.12-1.38.04-2.76.02-4.15-.02-1.2-.52-2.19-1.39-2.98-1.17-1.07-2.63-1.39-4.16-1.4-2.81-.02-5.62,0-8.43-.01-.35,0-.65.07-.94.24-1.13.7-2.31,1.28-3.52,1.82-6.08,2.72-12.42,3.54-19,2.53-4.26-.65-8.23-2.13-11.92-4.35-.25-.15-.51-.25-.82-.25-3.39,0-6.79,0-10.18,0-1.29,0-2.52.32-3.58,1.04-1.39.94-1.88,2.31-1.87,3.98.03,12.52.02,25.04.02,37.57-.25.44-.09.91-.11,1.36-.04.72-.51,1.4-1.19,1.64-.69.25-1.44-.01-1.93-.6-.47-.56-.4-1.21-.37-1.84.03-.45-.12-.57-.56-.54-.91.05-1.83,0-2.75.07-3.78.27-6.15,4.65-4.29,7.96,1.14,2.03,2.94,2.91,5.22,2.92,1.99,0,3.98.01,5.97,0,.37,0,.5.11.56.47.6,3.52,1.83,6.83,3.56,9.94,4.1,7.34,10.13,12.45,18.05,15.24,5.72,2.02,11.61,2.35,17.56,1.1,7.96-1.68,14.42-5.78,19.38-12.19,3.21-4.14,5.29-8.82,6.22-13.99.08-.43.25-.58.72-.57,1.79.04,3.59.02,5.38.01,1.83,0,3.38-.6,4.58-2.04,2.01-2.43,1.38-6.31-1.29-7.98-1.29-.81-2.69-.94-4.15-.93-1.26.02-1.26,0-1.27,1.27,0,1.05-.73,1.78-1.75,1.78-.99,0-1.74-.76-1.75-1.79,0-.78-.01-1.56-.01-2.34,0-10.77,0-21.54.01-32.3,0-.23-.01-.47-.02-.7ZM84.84,39.54c.29,0,.58,0,.87,0,1.48.02,2.98-.14,4.44.07,4,.58,6.84,4.06,6.82,8.02-.05,8.37-.02,16.74-.02,25.11,0,.75,0,.74.77.75,1.34.02,2.69-.11,4.03.1.55.09.68-.02.68-.59-.02-8.19-.03-16.39,0-24.58,0-2.48-.43-4.84-1.48-7.07-1.79-3.79-4.63-6.49-8.49-8.11-1.84-.77-3.76-1.1-5.74-1.15-.38,0-.45-.15-.45-.48-.05-2.3-.78-4.4-1.94-6.35-1.86-3.13-4.56-5.38-7.71-7.11-4.53-2.48-9.43-3.58-14.56-3.7-2.91-.07-5.78.2-8.63.86-4.47,1.04-8.55,2.86-11.97,5.97-3.08,2.79-5.11,6.15-5.29,10.42-.01.32-.14.39-.42.38-.95,0-1.91,0-2.86.09-4.12.38-7.55,2.14-10.32,5.19-2.49,2.73-3.98,5.97-4.03,9.64-.11,8.64-.03,17.28-.05,25.92,0,.41.14.47.5.46,1.45-.02,2.9-.03,4.35,0,.52.01.67-.12.67-.66-.02-8.37-.01-16.74-.02-25.11,0-.71.06-1.41.25-2.08.94-3.25,3.05-5.28,6.39-5.9,1.81-.33,3.66-.07,5.49-.13.42-.01.84,0,1.43,0-.39-.36-.64-.62-.91-.85-.52-.45-.9-.97-.94-1.68-.05-.87.48-1.71,1.27-2.06.85-.37,1.78-.13,2.54.66,2.17,2.27,4.66,4.14,7.41,5.62,4.65,2.51,9.6,3.85,14.94,3.64,2.05-.08,4.07-.34,6.06-.82,2.93-.71,5.7-1.85,8.28-3.4,2.47-1.49,4.82-3.15,6.77-5.31.85-.94,2.29-1.01,3.13-.19.89.86.84,2.15-.1,3.12-.39.4-.75.83-1.15,1.27Z" style="fill: #0b1932;"/>
      <path d="M93.16,52.57c0,.23.02.47.02.7,0,10.77,0,21.54-.01,32.3,0,.78,0,1.56.01,2.34.01,1.03.76,1.79,1.75,1.79,1.02,0,1.74-.73,1.75-1.78.01-1.27.01-1.25,1.27-1.27,1.46-.02,2.86.12,4.15.93,2.67,1.67,3.3,5.55,1.29,7.98-1.2,1.44-2.75,2.04-4.58,2.04-1.79,0-3.59.02-5.38-.01-.47-.01-.64.14-.72.57-.93,5.17-3.02,9.85-6.22,13.99-4.97,6.42-11.42,10.52-19.38,12.19-5.95,1.25-11.84.92-17.56-1.1-7.92-2.79-13.95-7.9-18.05-15.24-1.74-3.11-2.96-6.42-3.56-9.94-.06-.35-.19-.47-.56-.47-1.99.02-3.98.01-5.97,0-2.28,0-4.08-.88-5.22-2.92-1.86-3.31.51-7.69,4.29-7.96.92-.07,1.83-.02,2.75-.07.43-.02.58.09.56.54-.04.63-.1,1.28.37,1.84.49.59,1.24.85,1.93.6.69-.24,1.16-.92,1.19-1.64.02-.45-.13-.93.11-1.36.21-.21.11-.48.11-.72,0-10.88,0-21.76,0-32.65,0-.49.06-.71.65-.71,5.66.02,11.31.02,16.97.01.24,0,.46.03.68.13,3.88,1.79,7.94,2.91,12.19,3.25,2.47.19,4.94.12,7.41-.19,3.18-.41,6.21-1.29,9.2-2.41.72-.27,1.36-.77,2.18-.77,5.46,0,10.92,0,16.38,0ZM58.79,96.93c1.85,0,3.71-.04,5.56.01,1.39.04,2.64-1.64,1.92-2.9-.15-.27-.25-.57-.37-.85-1.14-2.62-2.27-5.24-3.41-7.86-.51-1.16-1.01-2.32-1.55-3.46-.37-.77-.98-1.3-1.86-1.29-.77,0-1.46.33-1.82,1.07-1.97,4.09-3.9,8.19-5.89,12.27-.83,1.7.56,3.07,1.92,3.03,1.83-.05,3.67-.01,5.5-.01ZM69.51,69.39c0,1.45.82,2.45,2.27,2.64,5.03.64,10.07,1.25,15.11,1.86,1.48.18,2.41-.36,2.92-1.64.63-1.58-.27-3.43-1.84-3.63-2.66-.35-5.33-.64-7.99-.96-2.45-.29-4.91-.55-7.36-.88-1.8-.25-3.12.81-3.12,2.61ZM32.42,71.15c-.07,1.54,1.25,3.05,3.04,2.77,2.56-.4,5.14-.65,7.71-.96,2.55-.31,5.1-.62,7.65-.95,1.37-.18,2.27-1.51,2.09-3.03-.16-1.36-1.35-2.39-2.66-2.25-1.74.19-3.48.41-5.22.62-3.42.41-6.84.84-10.26,1.24-1.4.16-2.34,1.15-2.34,2.57ZM61.64,111.41c.25-.02.5-.04.76-.05,3.07-.09,5.96-.82,8.61-2.4,2.65-1.57,4.51-3.84,5.86-6.57.45-.91.08-1.93-.77-2.27-.93-.37-1.87.11-2.21,1.12-.05.15-.08.3-.16.44-1.41,2.61-3.43,4.59-6.23,5.62-3.44,1.27-6.96,1.35-10.49.35-.79-.22-1.51.04-1.9.73-.38.68-.25,1.43.34,1.95.3.26.66.41,1.04.49,1.7.38,3.42.57,5.15.59ZM43.27,86.31c2.07-.01,3.65-1.61,3.63-3.68-.02-1.94-1.64-3.59-3.56-3.59-2.11,0-3.73,1.62-3.71,3.73.02,1.98,1.64,3.56,3.64,3.54ZM77.1,86.31c2.05-.02,3.59-1.62,3.57-3.72-.01-1.95-1.65-3.57-3.58-3.55-2.06.02-3.71,1.65-3.69,3.65.02,2.04,1.65,3.64,3.7,3.62Z" style="fill: #eed7d0;"/>
      <path d="M84.84,39.54c.4-.44.76-.87,1.15-1.27.94-.97.99-2.25.1-3.12-.84-.82-2.28-.74-3.13.19-1.96,2.15-4.31,3.82-6.77,5.31-2.58,1.55-5.34,2.7-8.28,3.4-1.99.48-4.01.74-6.06.82-5.33.2-10.28-1.14-14.94-3.64-2.75-1.48-5.24-3.35-7.41-5.62-.75-.79-1.69-1.03-2.54-.66-.79.34-1.32,1.19-1.27,2.06.04.71.42,1.23.94,1.68.27.24.52.49.91.85-.59,0-1.01-.01-1.43,0-1.83.06-3.68-.21-5.49.13-3.34.62-5.45,2.65-6.39,5.9-.19.67-.26,1.37-.25,2.08,0,8.37,0,16.74.02,25.11,0,.54-.14.67-.67.66-1.45-.04-2.9-.03-4.35,0-.36,0-.5-.05-.5-.46.01-8.64-.07-17.28.05-25.92.05-3.68,1.55-6.91,4.03-9.64,2.77-3.05,6.2-4.81,10.32-5.19.95-.09,1.91-.1,2.86-.09.29,0,.41-.06.42-.38.18-4.28,2.21-7.63,5.29-10.42,3.42-3.11,7.51-4.92,11.97-5.97,2.84-.66,5.72-.94,8.63-.86,5.13.12,10.03,1.22,14.56,3.7,3.15,1.73,5.85,3.98,7.71,7.11,1.16,1.95,1.89,4.05,1.94,6.35,0,.33.08.47.45.48,1.98.04,3.91.38,5.74,1.15,3.86,1.62,6.7,4.32,8.49,8.11,1.06,2.24,1.49,4.6,1.48,7.07-.03,8.19-.02,16.39,0,24.58,0,.56-.13.67-.68.59-1.33-.21-2.68-.08-4.03-.1-.77-.01-.77,0-.77-.75,0-8.37-.04-16.74.02-25.11.02-3.96-2.82-7.44-6.82-8.02-1.46-.21-2.96-.05-4.44-.07-.29,0-.58,0-.87,0Z" style="fill: #e13d21;"/>
      <path d="M93.16,52.57c-5.46,0-10.92,0-16.38,0-.82,0-1.46.5-2.18.77-2.98,1.13-6.02,2.01-9.2,2.41-2.47.32-4.94.39-7.41.19-4.25-.33-8.32-1.46-12.19-3.25-.22-.1-.44-.13-.68-.13-5.66,0-11.31.01-16.97-.01-.59,0-.65.22-.65.71.01,10.88,0,21.76,0,32.65,0,.24.1.51-.11.72,0-12.52.01-25.04-.02-37.57,0-1.67.48-3.03,1.87-3.98,1.07-.73,2.29-1.04,3.58-1.04,3.39,0,6.79,0,10.18,0,.31,0,.57.1.82.25,3.69,2.22,7.66,3.7,11.92,4.35,6.57,1.01,12.92.18,19-2.53,1.21-.54,2.4-1.12,3.52-1.82.29-.18.59-.25.94-.24,2.81.01,5.62,0,8.43.01,1.53.01,2.99.32,4.16,1.4.87.79,1.37,1.78,1.39,2.98.02,1.38.1,2.76-.02,4.15Z" style="fill: #d8b9ae;"/>
      <path d="M58.79,96.93c-1.83,0-3.67-.04-5.5.01-1.36.04-2.75-1.33-1.92-3.03,1.99-4.08,3.92-8.18,5.89-12.27.35-.74,1.04-1.07,1.82-1.07.88,0,1.49.53,1.86,1.29.54,1.14,1.05,2.3,1.55,3.46,1.14,2.62,2.28,5.24,3.41,7.86.12.29.22.59.37.85.72,1.26-.53,2.94-1.92,2.9-1.85-.06-3.71-.01-5.56-.01Z" style="fill: #de978d;"/>
      <path d="M69.51,69.39c0-1.8,1.32-2.86,3.12-2.61,2.45.34,4.9.59,7.36.88,2.66.32,5.33.61,7.99.96,1.57.21,2.47,2.05,1.84,3.63-.51,1.27-1.45,1.82-2.92,1.64-5.04-.61-10.08-1.22-15.11-1.86-1.45-.18-2.26-1.19-2.27-2.64Z" style="fill: #e13d21;"/>
      <path d="M32.42,71.15c0-1.42.95-2.41,2.34-2.57,3.42-.39,6.84-.82,10.26-1.24,1.74-.21,3.48-.44,5.22-.62,1.31-.14,2.51.9,2.66,2.25.18,1.52-.72,2.86-2.09,3.03-2.55.33-5.1.63-7.65.95-2.57.31-5.15.56-7.71.96-1.79.28-3.11-1.23-3.04-2.77Z" style="fill: #e13d21;"/>
      <path d="M61.64,111.41c-1.74-.02-3.46-.21-5.15-.59-.38-.09-.74-.23-1.04-.49-.59-.52-.72-1.27-.34-1.95.39-.69,1.11-.96,1.9-.73,3.53,1,7.05.92,10.49-.35,2.8-1.04,4.82-3.01,6.23-5.62.07-.13.11-.29.16-.44.34-1.02,1.28-1.5,2.21-1.12.85.34,1.22,1.36.77,2.27-1.34,2.73-3.21,5-5.86,6.57-2.66,1.58-5.54,2.32-8.61,2.4-.25,0-.5.03-.76.05Z" style="fill: #0b1932;"/>
      <path d="M43.27,86.31c-2,.01-3.62-1.56-3.64-3.54-.02-2.11,1.6-3.74,3.71-3.73,1.92,0,3.54,1.65,3.56,3.59.02,2.07-1.56,3.67-3.63,3.68Z" style="fill: #0b1932;"/>
      <path d="M77.1,86.31c-2.05.02-3.69-1.58-3.7-3.62-.02-2,1.64-3.63,3.69-3.65,1.93-.02,3.57,1.6,3.58,3.55.01,2.1-1.52,3.7-3.57,3.72Z" style="fill: #0b1932;"/>
    </g>
    <g>
      <path d="M336.88,116.17c-3.05,1.64-6.31,2.11-9.73,1.85-4.91-.37-7.74-3.08-8.2-7.98-.11-1.16-.11-2.33-.12-3.49-.01-4.29,0-8.59-.01-12.88,0-.71,0-1.43,0-2.33-1.44-.09-2.71-.16-4.1-.24v-8.26c1.31-.08,2.58-.16,4.1-.26v-8.62h9.8v8.66h8.25c0-.43,0,8.78,0,8.78h-8.25c0,4.93-.06,9.88.03,14.72.05,2.5,1.31,3.56,3.81,3.27,1.49-.18,2.95-.7,4.42-1.07v7.86ZM223.71,82.83h-9.72c-.38,3.37-.23,43.45.15,44.97h9.49c0-1.71-.02-3.3,0-4.89.02-1.53.06-3.05.12-4.58.06-1.54-.36-3.11.17-4.7,1.39,1.04,2.57,2.14,3.93,2.91,7.2,4.05,17.13.52,20.64-7.25,2.15-4.77,2.28-9.72,1.22-14.74-.76-3.6-2.62-6.59-5.44-8.98-4.75-4.02-12.77-5.03-17.97-.65-.81.68-1.54,1.46-2.61,2.48v-4.57ZM237.91,107.27c-3.79,4.02-10.78,3.2-13.31-2.24-1.47-3.16-1.5-6.36-.13-9.49,1.4-3.2,3.98-5.05,7.51-5.07,3.53-.02,6.11,1.82,7.54,5,.66,1.49.86,3.19,1.09,4.05-.14,3.42-.85,5.8-2.69,7.76ZM175.61,101.33c-.02-2.77-.35-5.5-1.28-8.14-2.13-6.08-6.25-9.9-12.71-10.88-8.1-1.24-14.87,2.49-18.18,9.12-2.24,4.49-2.59,9.18-1.39,14,1.23,4.94,4.14,8.66,8.71,10.88,5.77,2.81,11.68,2.8,17.5.09,2.17-1.01,4.03-2.5,5.48-4.65-1.88-1.65-3.67-3.22-5.48-4.81-.77.56-1.39,1.05-2.05,1.49-3.18,2.1-6.58,2.61-10.19,1.28-2.69-.99-4.44-3.41-4.4-6.16h23.72c.11-.83.28-1.53.27-2.22ZM151.3,97.29c.36-4.2,3.3-7.12,7.11-7.31,3.03-.15,6.92,1.91,7.42,7.31h-14.53ZM286.44,97.64c-.48-4.3-2.06-8.17-5.19-11.26-5.58-5.5-16.31-5.93-22.6-.27-4.93,4.43-6.68,10.08-6.03,16.52.47,4.66,2.34,8.74,6.13,11.63,6.23,4.76,13.07,5.27,20.2,2.31,2.35-.98,4.34-2.56,5.89-4.83-1.87-1.65-3.66-3.22-5.48-4.83-.58.43-1.04.77-1.49,1.12-1.77,1.37-3.78,2.19-6.01,2.36-2.71.2-5.26-.29-7.23-2.34-1.14-1.18-2.1-2.52-2.04-4.48h23.9c0-2.19.17-4.08-.03-5.93ZM262.57,97.32c-.2-3.71,2.91-7.11,6.59-7.32,4.21-.23,7.42,2.76,7.68,7.32h-14.27ZM199.88,82.82c-2.28,3.22-4.16,6.64-6.62,9.94-2.23-3.49-4.58-6.85-6.59-9.97-2.03-.13-8.77,0-10.52,0,3.83,5.6,7.98,11.48,11.82,17.1-4.02,5.84-7.97,11.57-12.08,17.56h10.22c2.47-3.36,4.45-7.07,7.08-10.61,2.41,3.71,4.45,7.23,6.64,10.6h10.96c-3.99-5.84-8.33-11.95-12.3-17.75,3.91-5.65,7.7-11.13,11.67-16.86h-10.28ZM300.09,85.88v-2.95c-2.68-.39-8.13-.32-9.79.1v34.38h9.79c0-.86,0-1.57,0-2.29,0-3.49-.05-6.98.03-10.47.04-1.59.22-3.2.54-4.75.85-4.05,4.07-6.88,8.2-7.36.71-.08,1.42-.15,2.32-.25,0-3.41.02-6.71-.03-10.01-1.9-.42-3.46-.03-4.93.57-2.77,1.13-4.42,3.43-6.13,5.84v-2.82Z" style="fill: #0a1833;"/>
      <path d="M142.68,32.14h9.44v4.19c.95.22,1.36-.34,1.77-.81,4.93-5.73,14.35-5.04,19.64-.07,2.76,2.6,4.4,5.74,5.05,9.42.86,4.91.56,9.68-1.76,14.21-3.3,6.44-10.17,9.26-16.89,7.82-2.28-.49-4.17-1.65-5.89-3.16-.43-.38-.84-.77-1.24-1.14-.85.46-.6,1.19-.61,1.8-.03,3.64-.02,7.28-.03,10.91,0,.5-.05,1.01-.08,1.59-1.53.48-3.05.19-4.55.23-1.52.05-3.04.01-4.78.01-.26-5.16-.08-10.16-.12-15.15-.03-4.95-.02-9.89,0-14.84.02-4.99-.07-9.97.06-15.02ZM169.28,49.58c.13-2.07-.16-3.97-1.26-5.7-1.76-2.76-4.1-4.39-7.55-4.24-3.22.14-5.53,1.66-7,4.41-1.74,3.27-1.8,6.72-.36,10.08,2.32,5.43,9.53,6.75,13.6,2.52,1.88-1.96,2.85-4.35,2.57-7.07ZM234.85,66.61c0-.87,0-1.65,0-2.43,0-5.38,0-10.77,0-16.15,0-.73-.06-1.47.06-2.18.68-3.9,2.86-5.89,6.92-5.68,2.35.12,4.18,1.49,4.85,3.74.33,1.1.47,2.28.48,3.43.05,5.75.02,11.5.03,17.25,0,.69.06,1.38.08,2.01h9.42c.09-.48.23-.83.22-1.18-.03-7.05-.07-14.11-.12-21.16,0-.8.02-1.61-.09-2.4-.5-3.59-1.8-6.78-5.08-8.73-2.74-1.63-5.75-1.98-8.86-1.43-2.38.42-4.31,1.64-6.02,3.32-.45.44-.72,1.35-1.77,1.06-.1-1.27-.2-2.55-.29-3.77-2.29-.42-7.63-.37-9.32.07v34.24h9.47ZM265.06,32.11h-4.18v7.98c1.35.09,2.62.18,4.05.28.04.98.1,1.76.1,2.54,0,4.65,0,9.31,0,13.96,0,.94-.04,1.9.1,2.83.56,3.78,2.3,6.33,6.48,7.2,2.82.58,5.65.55,8.39-.47.86-.32,1.68-.76,2.44-1.11v-7.39c-1.24.3-2.35.64-3.5.83-2.9.49-4.32-.67-4.35-3.59-.04-4.44-.04-15-.04-15h8v-8.22h-8v-8.69h-9.45c-.05,2.32,0,5.87-.07,8.85ZM192.73,64.22c.02-4.15-.15-8.31.11-12.44.41-6.26,3.75-9.74,9.77-10.29.34-.03.67-.14,1.15-.25,0-1.68.02-3.28,0-4.87-.03-1.57.13-3.16-.12-4.75-2.47-.38-4.65.25-6.35,1.58-1.7,1.33-2.93,3.24-4.41,4.94-.47-1.98.31-4.08-.59-6.11-1.53,0-2.98-.05-4.43.01-1.5.06-3.04-.33-4.47.28-.41,2.54-.31,32.7.13,34.3h9.22c0-.97,0-1.69,0-2.41ZM218.12,60.91c0-8.72,0-17.44,0-26.16,0-.9.27-1.9-.67-2.72-1.46,0-2.99-.05-4.51.01-1.5.06-3.03-.3-4.52.27v34.31h9.71c0-2.08,0-3.89,0-5.7Z" style="fill: #e43b11;"/>
      <path d="M208.32,19.68h9.86s.06,5.3.06,7.86c0,0-8.33.16-9.92.16v-8.02Z" style="fill: #e43b11;"/>
    </g>
  </g>
</svg>